<svg width="24" height="24" viewBox="0 0 24 24" fill="none" xmlns="http://www.w3.org/2000/svg">
<g clipPath="url(#clip0_1261_52367)">
<path d="M20.0933 17.5861C19.7908 18.2848 19.4328 18.928 19.018 19.5193C18.4526 20.3255 17.9897 20.8835 17.6329 21.1934C17.0798 21.702 16.4872 21.9625 15.8527 21.9773C15.3971 21.9773 14.8478 21.8477 14.2083 21.5847C13.5667 21.323 12.9771 21.1934 12.438 21.1934C11.8726 21.1934 11.2662 21.323 10.6175 21.5847C9.96793 21.8477 9.44461 21.9847 9.0445 21.9983C8.436 22.0242 7.82948 21.7563 7.22406 21.1934C6.83765 20.8563 6.35434 20.2786 5.77534 19.4601C5.15413 18.586 4.6434 17.5725 4.24329 16.417C3.81478 15.1689 3.59998 13.9603 3.59998 12.7902C3.59998 11.4498 3.8896 10.2938 4.4697 9.32509C4.92561 8.54696 5.53214 7.93315 6.29125 7.48255C7.05036 7.03195 7.87059 6.80232 8.75389 6.78763C9.23721 6.78763 9.87102 6.93713 10.6586 7.23095C11.4441 7.52576 11.9484 7.67526 12.1695 7.67526C12.3348 7.67526 12.895 7.50045 13.8447 7.15194C14.7428 6.82874 15.5008 6.69492 16.1218 6.74763C17.8045 6.88343 19.0686 7.54675 19.9094 8.74177C18.4045 9.65359 17.66 10.9307 17.6749 12.5691C17.6884 13.8452 18.1514 14.9071 19.0612 15.7503C19.4736 16.1417 19.934 16.4441 20.4464 16.6589C20.3353 16.9811 20.218 17.2898 20.0933 17.5861ZM16.2342 2.40011C16.2342 3.40034 15.8687 4.33425 15.1404 5.19867C14.2614 6.22629 13.1982 6.8201 12.0453 6.7264C12.0306 6.6064 12.0221 6.48011 12.0221 6.3474C12.0221 5.38718 12.4401 4.35956 13.1824 3.51934C13.553 3.09392 14.0243 2.74019 14.5959 2.45801C15.1663 2.18005 15.7058 2.02632 16.2132 2C16.228 2.13371 16.2342 2.26745 16.2342 2.40011Z" fill="black"/>
</g>
<defs>
<clipPath id="clip0_1261_52367">
<rect width="16.8464" height="20" fill="white" transform="translate(3.59998 2)"/>
</clipPath>
</defs>
</svg>
