<svg width="24" height="24" viewBox="0 0 24 24" fill="none" xmlns="http://www.w3.org/2000/svg">
<g clipPath="url(#clip0_1261_52361)">
<path d="M8.91886 2.54836C11.0802 1.80105 13.5049 1.81718 15.6554 2.6075C16.849 3.04836 17.9404 3.73654 18.8759 4.60213C18.564 4.94084 18.2253 5.25804 17.9027 5.586L16.064 7.42471C15.4565 6.84406 14.7146 6.4032 13.9081 6.15589C12.9619 5.87095 11.9404 5.82793 10.9726 6.03761C9.8436 6.27955 8.79521 6.87095 7.98338 7.6989C7.32747 8.36019 6.83284 9.1774 6.53177 10.0591C5.44037 9.20965 4.34897 8.36557 3.2522 7.51611C4.40811 5.20428 6.48338 3.3817 8.91886 2.54836Z" fill="#EA4335"/>
<path d="M3.25757 7.50537C4.34897 8.35483 5.44037 9.19892 6.53714 10.0484C6.10704 11.3011 6.10704 12.6935 6.53714 13.9409C5.44574 14.7903 4.35435 15.6398 3.26295 16.4839C2.2522 14.5107 1.94574 12.1935 2.3866 10.0215C2.56402 9.15053 2.85435 8.30107 3.25757 7.50537Z" fill="#FBBC05"/>
<path d="M21.5962 10.1235C21.9081 11.8816 21.8382 13.7149 21.3435 15.4354C20.8866 17.0106 20.021 18.473 18.8113 19.5859L15.6339 17.1182C16.6823 16.4139 17.4242 15.2741 17.6339 14.0268H12.1823C12.1876 12.7257 12.1876 11.4246 12.1876 10.1235H21.5962Z" fill="#4285F4"/>
<path d="M6.52639 13.9463C6.94575 15.1775 7.7522 16.2689 8.81671 17.0162C9.48338 17.4839 10.2468 17.8173 11.0425 17.9785C11.8275 18.1398 12.6393 18.1183 13.4296 17.9839C14.2146 17.8441 14.9726 17.5592 15.6339 17.113L18.8113 19.5807C17.6662 20.6398 16.2307 21.3603 14.7146 21.7097C13.0371 22.0915 11.263 22.1022 9.59628 21.656C8.2737 21.3065 7.03177 20.6775 5.96187 19.8226C4.83822 18.9302 3.90273 17.7796 3.2522 16.4893C4.3436 15.6452 5.43499 14.7958 6.52639 13.9463Z" fill="#34A853"/>
</g>
<defs>
<clipPath id="clip0_1261_52361">
<rect width="19.6774" height="20" fill="white" transform="translate(2.15002 2)"/>
</clipPath>
</defs>
</svg>
