<svg width="16" height="16" viewBox="0 0 16 16" fill="none" xmlns="http://www.w3.org/2000/svg">
    <path d="M13.6481 2.34323C12.53 1.22439 11.1055 0.462424 9.55464 0.153731C8.00379 -0.154962 6.39627 0.00345944 4.9354 0.608954C3.47452 1.21445 2.22587 2.23984 1.34737 3.55543C0.468882 4.87102 0 6.41775 0 8C0 9.58225 0.468882 11.129 1.34737 12.4446C2.22587 13.7602 3.47452 14.7855 4.9354 15.391C6.39627 15.9965 8.00379 16.155 9.55464 15.8463C11.1055 15.5376 12.53 14.7756 13.6481 13.6568C14.3934 12.9156 14.9849 12.0342 15.3886 11.0634C15.7922 10.0926 16 9.05148 16 8C16 6.94852 15.7922 5.9074 15.3886 4.93658C14.9849 3.96576 14.3934 3.08443 13.6481 2.34323ZM4.86898 7.87119L5.82833 6.91118L7.36015 8.45122L10.1671 5.64239L11.1265 6.6024L7.36254 10.368L4.86898 7.87119Z" fill="#3F3942"/>
</svg>
