<svg width="20" height="20" viewBox="0 0 20 20" fill="none" xmlns="http://www.w3.org/2000/svg">
    <path fill-rule="evenodd" clip-rule="evenodd" d="M10 18C14.4183 18 18 14.4183 18 10C18 5.58172 14.4183 2 10 2C5.58172 2 2 5.58172 2 10C2 14.4183 5.58172 18 10 18ZM10 20C15.5228 20 20 15.5228 20 10C20 4.47715 15.5228 0 10 0C4.47715 0 0 4.47715 0 10C0 15.5228 4.47715 20 10 20Z" fill="#E0DEE1"/>
    <path d="M14 10C14 12.2091 12.2091 14 10 14C7.79086 14 6 12.2091 6 10C6 7.79086 7.79086 6 10 6C12.2091 6 14 7.79086 14 10Z" fill="#3F3942"/>
</svg>
