<svg width="16" height="16" viewBox="0 0 16 16" fill="none" xmlns="http://www.w3.org/2000/svg">
    <path d="M13.6491 2.34327C12.531 1.22444 11.1065 0.462469 9.55562 0.153776C8.00476 -0.154916 6.39725 0.00350521 4.93637 0.608998C3.4755 1.21449 2.22684 2.23988 1.34835 3.55547C0.469859 4.87105 0.000976562 6.41777 0.000976562 8.00002C0.000976562 9.58227 0.469859 11.129 1.34835 12.4446C2.22684 13.7602 3.4755 14.7855 4.93637 15.391C6.39725 15.9965 8.00476 16.155 9.55562 15.8463C11.1065 15.5376 12.531 14.7756 13.6491 13.6568C14.3944 12.9156 14.9859 12.0342 15.3896 11.0634C15.7932 10.0926 16.001 9.0515 16.001 8.00002C16.001 6.94854 15.7932 5.90742 15.3896 4.93661C14.9859 3.9658 14.3944 3.08446 13.6491 2.34327ZM12.6897 12.7C11.7607 13.6297 10.5771 14.2629 9.28845 14.5194C7.99983 14.776 6.66408 14.6444 5.4502 14.1413C4.23632 13.6382 3.19879 12.7862 2.46882 11.6931C1.73885 10.5999 1.34923 9.31474 1.34923 8.00002C1.34923 6.6853 1.73885 5.40011 2.46882 4.30697C3.19879 3.21384 4.23632 2.36183 5.4502 1.85875C6.66408 1.35566 7.99983 1.22408 9.28845 1.48062C10.5771 1.73717 11.7607 2.37035 12.6897 3.30005C13.3119 3.91415 13.806 4.64578 14.1433 5.45248C14.4806 6.25918 14.6545 7.12486 14.6548 7.99934C14.6551 8.87381 14.4818 9.73966 14.145 10.5466C13.8083 11.3535 13.3146 12.0855 12.6929 12.7H12.6897Z" fill="#E0DEE1"/>
    <path d="M7.35787 8.44788L5.82365 6.91268L4.86426 7.87264L7.35548 10.3654L11.1234 6.59506L10.1641 5.63506L7.35787 8.44788Z" fill="#E0DEE1"/>
</svg>
